<svg xmlns="http://www.w3.org/2000/svg" width="500" viewBox="0 0 375 374.999991" height="500" preserveAspectRatio="xMidYMid meet"><defs><g/><clipPath id="d1fe2de41a"><path d="M 122.332031 97.945312 L 252.832031 97.945312 L 252.832031 205.945312 L 122.332031 205.945312 Z M 122.332031 97.945312 " clip-rule="nonzero"/></clipPath></defs><g clip-path="url(#d1fe2de41a)"><path fill="#332c54" d="M 186.710938 129.804688 L 186.710938 197.992188 L 197.734375 190.976562 L 197.734375 136.847656 L 202.078125 136.847656 L 202.078125 193.367188 L 182.371094 205.914062 L 182.371094 125.453125 L 239.050781 125.453125 L 245.265625 114.804688 L 184.527344 114.804688 L 184.527344 110.457031 L 252.84375 110.457031 L 241.546875 129.804688 Z M 137.910156 102.324219 L 232.664062 102.324219 L 227.882812 97.976562 L 135.449219 97.976562 L 122.332031 120.03125 L 166.4375 120.03125 L 166.4375 194.707031 L 170.78125 199.085938 L 170.78125 115.675781 L 129.972656 115.675781 Z M 137.910156 102.324219 " fill-opacity="1" fill-rule="nonzero"/></g><g fill="#332c54" fill-opacity="1"><g transform="translate(115.289243, 273.854279)"><g><path d="M 8.171875 -7.5625 L 5.140625 -7.5625 L 5.140625 0 L 3.34375 0 L 3.34375 -7.5625 L 0.296875 -7.5625 L 0.296875 -8.96875 L 8.171875 -8.96875 Z M 8.171875 -7.5625 "/></g></g></g><g fill="#332c54" fill-opacity="1"><g transform="translate(128.026757, 273.854279)"><g><path d="M 4.34375 -7.078125 C 4.539062 -7.078125 4.707031 -7.0625 4.84375 -7.03125 L 4.84375 -5.59375 C 4.082031 -5.644531 3.519531 -5.476562 3.15625 -5.09375 C 2.789062 -4.71875 2.609375 -4.078125 2.609375 -3.171875 L 2.609375 0 L 0.8125 0 L 0.8125 -6.921875 L 2.609375 -6.921875 L 2.609375 -5.65625 L 3.15625 -6.609375 C 3.5 -6.921875 3.894531 -7.078125 4.34375 -7.078125 Z M 4.34375 -7.078125 "/></g></g></g><g fill="#332c54" fill-opacity="1"><g transform="translate(137.606239, 273.854279)"><g><path d="M 4.84375 0 L 4.703125 -1.015625 L 4.375 -0.265625 C 3.914062 0.0351562 3.34375 0.1875 2.65625 0.1875 C 2.019531 0.1875 1.488281 0.0078125 1.0625 -0.34375 C 0.632812 -0.707031 0.421875 -1.203125 0.421875 -1.828125 C 0.421875 -2.597656 0.742188 -3.1875 1.390625 -3.59375 C 2.035156 -4.007812 2.984375 -4.21875 4.234375 -4.21875 L 4.6875 -4.21875 L 4.6875 -4.359375 C 4.6875 -4.628906 4.675781 -4.84375 4.65625 -5 C 4.59375 -5.5625 4.238281 -5.84375 3.59375 -5.84375 C 2.875 -5.84375 2.488281 -5.453125 2.4375 -4.671875 L 0.6875 -4.65625 C 0.71875 -5.414062 1.003906 -6.007812 1.546875 -6.4375 C 2.097656 -6.875 2.800781 -7.09375 3.65625 -7.09375 C 5.375 -7.09375 6.296875 -6.414062 6.421875 -5.0625 C 6.453125 -4.726562 6.46875 -4.367188 6.46875 -3.984375 L 6.46875 -1.75 C 6.46875 -1.226562 6.507812 -0.644531 6.59375 0 Z M 3.34375 -1.078125 C 3.71875 -1.078125 4.035156 -1.207031 4.296875 -1.46875 C 4.554688 -1.726562 4.6875 -2.085938 4.6875 -2.546875 L 4.6875 -3.109375 C 3.082031 -3.222656 2.28125 -2.84375 2.28125 -1.96875 C 2.28125 -1.375 2.632812 -1.078125 3.34375 -1.078125 Z M 3.34375 -1.078125 "/></g></g></g><g fill="#332c54" fill-opacity="1"><g transform="translate(149.550986, 273.854279)"><g><path d="M 7.375 -6.921875 L 4.6875 0 L 2.6875 0 L 0 -6.921875 L 1.984375 -6.921875 L 3.734375 -1.359375 L 5.4375 -6.921875 Z M 7.375 -6.921875 "/></g></g></g><g fill="#332c54" fill-opacity="1"><g transform="translate(161.547724, 273.854279)"><g><path d="M 7.09375 -3.59375 C 7.09375 -3.34375 7.085938 -3.140625 7.078125 -2.984375 L 2.15625 -2.984375 C 2.257812 -1.710938 2.789062 -1.078125 3.75 -1.078125 C 4.144531 -1.078125 4.46875 -1.179688 4.71875 -1.390625 C 4.976562 -1.597656 5.140625 -1.882812 5.203125 -2.25 L 7 -2.25 C 6.820312 -1.457031 6.441406 -0.851562 5.859375 -0.4375 C 5.273438 -0.0195312 4.5625 0.1875 3.71875 0.1875 C 2.71875 0.1875 1.90625 -0.117188 1.28125 -0.734375 C 0.65625 -1.359375 0.34375 -2.257812 0.34375 -3.4375 C 0.34375 -4.507812 0.664062 -5.382812 1.3125 -6.0625 C 1.957031 -6.75 2.804688 -7.09375 3.859375 -7.09375 C 4.867188 -7.09375 5.660156 -6.757812 6.234375 -6.09375 C 6.804688 -5.425781 7.09375 -4.59375 7.09375 -3.59375 Z M 3.78125 -5.84375 C 2.882812 -5.84375 2.359375 -5.28125 2.203125 -4.15625 L 5.25 -4.15625 C 5.125 -5.28125 4.632812 -5.84375 3.78125 -5.84375 Z M 3.78125 -5.84375 "/></g></g></g><g fill="#332c54" fill-opacity="1"><g transform="translate(173.70041, 273.854279)"><g><path d="M 2.5625 -9.5625 L 2.5625 -2.265625 C 2.5625 -1.960938 2.566406 -1.75 2.578125 -1.625 C 2.585938 -1.445312 2.648438 -1.328125 2.765625 -1.265625 C 2.878906 -1.203125 3.082031 -1.179688 3.375 -1.203125 L 3.375 0.03125 C 3.0625 0.0703125 2.695312 0.09375 2.28125 0.09375 C 1.320312 0.09375 0.828125 -0.3125 0.796875 -1.125 C 0.773438 -1.332031 0.765625 -1.695312 0.765625 -2.21875 L 0.765625 -9.5625 Z M 2.5625 -9.5625 "/></g></g></g><g fill="#332c54" fill-opacity="1"><g transform="translate(181.967289, 273.854279)"><g/></g></g><g fill="#332c54" fill-opacity="1"><g transform="translate(189.129505, 273.854279)"><g><path d="M 6.015625 -2.703125 L 3 -2.703125 L 2.109375 0 L 0.1875 0 L 3.4375 -8.96875 L 5.6875 -8.96875 L 8.859375 0 L 6.90625 0 Z M 4.53125 -7.4375 L 3.453125 -4.125 L 5.5625 -4.125 Z M 4.53125 -7.4375 "/></g></g></g><g fill="#332c54" fill-opacity="1"><g transform="translate(202.555804, 273.854279)"><g><path d="M 7.546875 -6.921875 L 7.546875 -1.734375 C 7.546875 -1.085938 7.539062 -0.640625 7.53125 -0.390625 C 7.488281 0.671875 7.144531 1.46875 6.5 2 C 5.851562 2.539062 4.972656 2.8125 3.859375 2.8125 C 2.859375 2.8125 2.070312 2.609375 1.5 2.203125 C 0.9375 1.796875 0.617188 1.207031 0.546875 0.4375 L 0.53125 0.3125 L 2.28125 0.3125 L 2.28125 0.421875 C 2.332031 0.742188 2.5 1 2.78125 1.1875 C 3.0625 1.375 3.429688 1.46875 3.890625 1.46875 C 4.453125 1.46875 4.890625 1.328125 5.203125 1.046875 C 5.523438 0.765625 5.703125 0.351562 5.734375 -0.1875 C 5.742188 -0.363281 5.75 -0.648438 5.75 -1.046875 L 5.75 -1.203125 L 5.21875 -0.4375 C 4.8125 -0.125 4.242188 0.03125 3.515625 0.03125 C 2.546875 0.03125 1.773438 -0.28125 1.203125 -0.90625 C 0.628906 -1.53125 0.34375 -2.351562 0.34375 -3.375 C 0.34375 -4.570312 0.660156 -5.488281 1.296875 -6.125 C 1.929688 -6.769531 2.722656 -7.09375 3.671875 -7.09375 C 4.378906 -7.09375 4.921875 -6.960938 5.296875 -6.703125 L 5.75 -6 L 5.75 -6.921875 Z M 2.671875 -1.84375 C 2.984375 -1.425781 3.410156 -1.21875 3.953125 -1.21875 C 4.492188 -1.21875 4.925781 -1.398438 5.25 -1.765625 C 5.582031 -2.140625 5.75 -2.722656 5.75 -3.515625 L 5.75 -3.71875 C 5.75 -4.4375 5.578125 -4.96875 5.234375 -5.3125 C 4.898438 -5.664062 4.492188 -5.84375 4.015625 -5.84375 C 3.472656 -5.84375 3.035156 -5.648438 2.703125 -5.265625 C 2.367188 -4.878906 2.203125 -4.300781 2.203125 -3.53125 C 2.203125 -2.820312 2.359375 -2.257812 2.671875 -1.84375 Z M 2.671875 -1.84375 "/></g></g></g><g fill="#332c54" fill-opacity="1"><g transform="translate(215.579225, 273.854279)"><g><path d="M 7.09375 -3.59375 C 7.09375 -3.34375 7.085938 -3.140625 7.078125 -2.984375 L 2.15625 -2.984375 C 2.257812 -1.710938 2.789062 -1.078125 3.75 -1.078125 C 4.144531 -1.078125 4.46875 -1.179688 4.71875 -1.390625 C 4.976562 -1.597656 5.140625 -1.882812 5.203125 -2.25 L 7 -2.25 C 6.820312 -1.457031 6.441406 -0.851562 5.859375 -0.4375 C 5.273438 -0.0195312 4.5625 0.1875 3.71875 0.1875 C 2.71875 0.1875 1.90625 -0.117188 1.28125 -0.734375 C 0.65625 -1.359375 0.34375 -2.257812 0.34375 -3.4375 C 0.34375 -4.507812 0.664062 -5.382812 1.3125 -6.0625 C 1.957031 -6.75 2.804688 -7.09375 3.859375 -7.09375 C 4.867188 -7.09375 5.660156 -6.757812 6.234375 -6.09375 C 6.804688 -5.425781 7.09375 -4.59375 7.09375 -3.59375 Z M 3.78125 -5.84375 C 2.882812 -5.84375 2.359375 -5.28125 2.203125 -4.15625 L 5.25 -4.15625 C 5.125 -5.28125 4.632812 -5.84375 3.78125 -5.84375 Z M 3.78125 -5.84375 "/></g></g></g><g fill="#332c54" fill-opacity="1"><g transform="translate(227.731912, 273.854279)"><g><path d="M 7.265625 -5.15625 C 7.296875 -4.84375 7.3125 -4.425781 7.3125 -3.90625 L 7.3125 0 L 5.53125 0 L 5.53125 -3.65625 C 5.53125 -4.0625 5.519531 -4.378906 5.5 -4.609375 C 5.4375 -5.429688 4.992188 -5.84375 4.171875 -5.84375 C 3.703125 -5.84375 3.320312 -5.625 3.03125 -5.1875 C 2.75 -4.75 2.609375 -4.070312 2.609375 -3.15625 L 2.609375 0 L 0.8125 0 L 0.8125 -6.921875 L 2.609375 -6.921875 L 2.609375 -5.796875 L 3.140625 -6.609375 C 3.597656 -6.929688 4.15625 -7.09375 4.8125 -7.09375 C 5.539062 -7.09375 6.113281 -6.921875 6.53125 -6.578125 C 6.945312 -6.242188 7.191406 -5.769531 7.265625 -5.15625 Z M 7.265625 -5.15625 "/></g></g></g><g fill="#332c54" fill-opacity="1"><g transform="translate(240.443425, 273.854279)"><g><path d="M 3.8125 -7.09375 C 4.71875 -7.09375 5.453125 -6.84375 6.015625 -6.34375 C 6.578125 -5.851562 6.894531 -5.210938 6.96875 -4.421875 L 5.203125 -4.421875 C 5.046875 -5.367188 4.566406 -5.84375 3.765625 -5.84375 C 3.296875 -5.84375 2.914062 -5.644531 2.625 -5.25 C 2.34375 -4.863281 2.203125 -4.285156 2.203125 -3.515625 C 2.203125 -2.691406 2.34375 -2.078125 2.625 -1.671875 C 2.90625 -1.273438 3.28125 -1.078125 3.75 -1.078125 C 4.113281 -1.078125 4.414062 -1.1875 4.65625 -1.40625 C 4.90625 -1.632812 5.070312 -1.960938 5.15625 -2.390625 L 6.953125 -2.390625 C 6.804688 -1.554688 6.441406 -0.914062 5.859375 -0.46875 C 5.273438 -0.03125 4.539062 0.1875 3.65625 0.1875 C 2.675781 0.1875 1.878906 -0.117188 1.265625 -0.734375 C 0.648438 -1.359375 0.34375 -2.25 0.34375 -3.40625 C 0.34375 -4.550781 0.671875 -5.453125 1.328125 -6.109375 C 1.992188 -6.765625 2.820312 -7.09375 3.8125 -7.09375 Z M 3.8125 -7.09375 "/></g></g></g><g fill="#332c54" fill-opacity="1"><g transform="translate(252.375183, 273.854279)"><g><path d="M 7.375 -6.921875 L 4.59375 0.265625 C 4.226562 1.191406 3.832031 1.832031 3.40625 2.1875 C 2.976562 2.550781 2.410156 2.734375 1.703125 2.734375 C 1.398438 2.734375 1.128906 2.710938 0.890625 2.671875 L 0.890625 1.4375 C 1.015625 1.457031 1.195312 1.46875 1.4375 1.46875 C 2.050781 1.46875 2.484375 1.160156 2.734375 0.546875 L 2.828125 0.328125 L 0 -6.921875 L 2 -6.921875 L 3.71875 -1.359375 L 5.40625 -6.921875 Z M 7.375 -6.921875 "/></g></g></g><g fill="#332c54" fill-opacity="1"><g transform="translate(49.273445, 249.8043)"><g><path d="M 18.164062 -21.699219 L 0.652344 -21.699219 L 0.652344 -17.109375 L 6.726562 -17.109375 L 6.726562 0 L 12.058594 0 L 12.058594 -17.109375 L 18.164062 -17.109375 Z M 18.164062 -21.699219 "/></g></g></g><g fill="#332c54" fill-opacity="1"><g transform="translate(75.807125, 249.8043)"><g><path d="M 19.683594 -3.625 L 19.683594 -5.207031 C 19.683594 -7.316406 18.910156 -8.742188 16.582031 -9.980469 C 17.917969 -10.972656 19.433594 -12.304688 19.433594 -15.066406 C 19.433594 -18.722656 17.019531 -21.699219 11.160156 -21.699219 L 1.582031 -21.699219 L 1.582031 0 L 6.882812 0 L 6.882812 -7.59375 L 11.625 -7.59375 C 13.421875 -7.59375 14.382812 -6.449219 14.382812 -5.023438 L 14.382812 -3.625 C 14.382812 -1.859375 14.476562 -1.023438 15.003906 0 L 20.304688 0 C 19.808594 -1.023438 19.683594 -1.859375 19.683594 -3.625 Z M 10.847656 -11.777344 L 6.882812 -11.777344 L 6.882812 -17.078125 L 11.035156 -17.078125 C 12.832031 -17.078125 13.949219 -16.304688 13.949219 -14.601562 C 13.949219 -12.707031 13.265625 -11.777344 10.847656 -11.777344 Z M 10.847656 -11.777344 "/></g></g></g><g fill="#332c54" fill-opacity="1"><g transform="translate(104.665512, 249.8043)"><g><path d="M 16.335938 0 L 22.070312 0 L 13.730469 -21.699219 L 8.957031 -21.699219 L 0.652344 0 L 6.386719 0 L 7.5625 -3.625 L 15.125 -3.625 Z M 8.867188 -7.53125 L 11.34375 -15.15625 L 13.855469 -7.53125 Z M 8.867188 -7.53125 "/></g></g></g><g fill="#332c54" fill-opacity="1"><g transform="translate(135.135696, 249.8043)"><g><path d="M 16.242188 -21.699219 L 11.191406 -6.539062 L 6.167969 -21.699219 L 0.496094 -21.699219 L 8.804688 0 L 13.578125 0 L 21.914062 -21.699219 Z M 16.242188 -21.699219 "/></g></g></g><g fill="#332c54" fill-opacity="1"><g transform="translate(165.295918, 249.8043)"><g><path d="M 6.882812 -4.585938 L 6.882812 -8.835938 L 15.5625 -8.835938 L 15.5625 -13.082031 L 6.882812 -13.082031 L 6.882812 -17.109375 L 17.109375 -17.109375 L 17.109375 -21.699219 L 1.582031 -21.699219 L 1.582031 0 L 17.421875 0 L 17.421875 -4.585938 Z M 6.882812 -4.585938 "/></g></g></g><g fill="#332c54" fill-opacity="1"><g transform="translate(191.395644, 249.8043)"><g><path d="M 6.882812 -4.585938 L 6.882812 -21.699219 L 1.582031 -21.699219 L 1.582031 0 L 16.460938 0 L 16.460938 -4.585938 Z M 6.882812 -4.585938 "/></g></g></g><g fill="#332c54" fill-opacity="1"><g transform="translate(216.379514, 249.8043)"><g><path d="M 15.621094 -11.933594 C 16.894531 -12.585938 18.164062 -14.042969 18.164062 -15.996094 C 18.164062 -19.40625 15.683594 -21.699219 10.757812 -21.699219 L 1.582031 -21.699219 L 1.582031 0 L 11.160156 0 C 16.925781 0 19.621094 -2.480469 19.621094 -6.539062 C 19.621094 -8.835938 18.070312 -11.191406 15.621094 -11.933594 Z M 6.882812 -17.328125 L 10.789062 -17.328125 C 11.46875 -17.328125 12.585938 -16.925781 12.585938 -15.46875 C 12.585938 -14.414062 11.964844 -13.359375 10.632812 -13.359375 L 6.882812 -13.359375 Z M 10.941406 -4.371094 L 6.882812 -4.371094 L 6.882812 -9.359375 L 11.191406 -9.359375 C 13.484375 -9.359375 13.886719 -7.8125 13.886719 -6.757812 C 13.886719 -5.546875 13.144531 -4.371094 10.941406 -4.371094 Z M 10.941406 -4.371094 "/></g></g></g><g fill="#332c54" fill-opacity="1"><g transform="translate(245.020915, 249.8043)"><g><path d="M 19.777344 -8.460938 L 19.777344 -21.699219 L 14.445312 -21.699219 L 14.445312 -8.648438 C 14.445312 -5.640625 13.082031 -4.308594 10.695312 -4.308594 C 8.308594 -4.308594 6.882812 -5.640625 6.882812 -8.648438 L 6.882812 -21.699219 L 1.582031 -21.699219 L 1.582031 -8.460938 C 1.582031 -2.820312 5.269531 0.277344 10.695312 0.277344 C 16.027344 0.277344 19.777344 -2.820312 19.777344 -8.460938 Z M 19.777344 -8.460938 "/></g></g></g><g fill="#332c54" fill-opacity="1"><g transform="translate(274.127267, 249.8043)"><g><path d="M 10.199219 -21.699219 L 1.582031 -21.699219 L 1.582031 0 L 10.199219 0 C 17.109375 0 20.644531 -3.875 20.644531 -10.847656 C 20.644531 -17.824219 17.109375 -21.699219 10.199219 -21.699219 Z M 9.671875 -4.585938 L 6.882812 -4.585938 L 6.882812 -17.109375 L 9.671875 -17.109375 C 13.949219 -17.109375 15.3125 -15.34375 15.3125 -10.847656 C 15.3125 -6.355469 13.949219 -4.585938 9.671875 -4.585938 Z M 9.671875 -4.585938 "/></g></g></g><g fill="#332c54" fill-opacity="1"><g transform="translate(303.450599, 249.8043)"><g><path d="M 13.886719 -7.84375 L 21.667969 -21.699219 L 15.683594 -21.699219 L 11.160156 -12.957031 L 6.601562 -21.699219 L 0.652344 -21.699219 L 8.398438 -7.84375 L 8.398438 0 L 13.886719 0 Z M 13.886719 -7.84375 "/></g></g></g></svg>
